<svg width="116" height="38" viewBox="0 0 116 38" fill="none" xmlns="http://www.w3.org/2000/svg">
<path d="M33.3165 25.0293V11.6817H35.7345V23.0024H41.6131V25.0293H33.3165ZM55.1188 18.3555C55.1188 19.7937 54.8494 21.0255 54.3106 22.0509C53.7762 23.0719 53.0462 23.854 52.1208 24.3971C51.1997 24.9402 50.1547 25.2118 48.9859 25.2118C47.8171 25.2118 46.77 24.9402 45.8445 24.3971C44.9234 23.8497 44.1935 23.0654 43.6547 22.0443C43.1203 21.0189 42.8531 19.7893 42.8531 18.3555C42.8531 16.9173 43.1203 15.6877 43.6547 14.6667C44.1935 13.6413 44.9234 12.857 45.8445 12.3139C46.77 11.7708 47.8171 11.4992 48.9859 11.4992C50.1547 11.4992 51.1997 11.7708 52.1208 12.3139C53.0462 12.857 53.7762 13.6413 54.3106 14.6667C54.8494 15.6877 55.1188 16.9173 55.1188 18.3555ZM52.6878 18.3555C52.6878 17.3431 52.5292 16.4894 52.212 15.7942C51.8992 15.0946 51.4647 14.5667 50.9085 14.2104C50.3524 13.8498 49.7115 13.6695 48.9859 13.6695C48.2603 13.6695 47.6194 13.8498 47.0633 14.2104C46.5071 14.5667 46.0705 15.0946 45.7533 15.7942C45.4405 16.4894 45.284 17.3431 45.284 18.3555C45.284 19.3679 45.4405 20.2238 45.7533 20.9233C46.0705 21.6185 46.5071 22.1464 47.0633 22.5071C47.6194 22.8634 48.2603 23.0415 48.9859 23.0415C49.7115 23.0415 50.3524 22.8634 50.9085 22.5071C51.4647 22.1464 51.8992 21.6185 52.212 20.9233C52.5292 20.2238 52.6878 19.3679 52.6878 18.3555ZM66.3466 15.9441C66.238 15.5921 66.0881 15.2771 65.8969 14.999C65.7101 14.7166 65.4841 14.4755 65.2191 14.2756C64.9584 14.0758 64.6586 13.9259 64.3197 13.8259C63.9808 13.7216 63.6115 13.6695 63.2117 13.6695C62.4948 13.6695 61.8561 13.8498 61.2956 14.2104C60.7351 14.5711 60.2941 15.1012 59.9726 15.8007C59.6554 16.4959 59.4968 17.3431 59.4968 18.3425C59.4968 19.3505 59.6554 20.2043 59.9726 20.9038C60.2898 21.6033 60.7308 22.1356 61.2956 22.5006C61.8605 22.8612 62.5165 23.0415 63.2639 23.0415C63.9417 23.0415 64.5282 22.9111 65.0236 22.6505C65.5232 22.3898 65.9078 22.0204 66.1771 21.5425C66.4465 21.0602 66.5812 20.4954 66.5812 19.848L67.1287 19.9327H63.505V18.0427H68.921V19.6459C68.921 20.7887 68.6776 21.7771 68.191 22.6113C67.7044 23.4456 67.0353 24.0886 66.1837 24.5405C65.3321 24.988 64.3544 25.2118 63.2508 25.2118C62.0212 25.2118 60.9415 24.9359 60.0117 24.3841C59.0862 23.8279 58.3628 23.0393 57.8414 22.0183C57.3244 20.9929 57.0658 19.7763 57.0658 18.3685C57.0658 17.291 57.2179 16.3286 57.5221 15.4813C57.8305 14.6341 58.2607 13.915 58.8125 13.3241C59.3643 12.7288 60.0117 12.277 60.7547 11.9685C61.4977 11.6556 62.3058 11.4992 63.1791 11.4992C63.9178 11.4992 64.6065 11.6078 65.2452 11.8251C65.8839 12.038 66.4509 12.3421 66.9462 12.7375C67.4459 13.1329 67.8565 13.6022 68.178 14.1453C68.4995 14.6884 68.7102 15.288 68.8102 15.9441H66.3466ZM83.1859 18.3555C83.1859 19.7937 82.9165 21.0255 82.3777 22.0509C81.8433 23.0719 81.1133 23.854 80.1879 24.3971C79.2668 24.9402 78.2218 25.2118 77.053 25.2118C75.8842 25.2118 74.8371 24.9402 73.9116 24.3971C72.9905 23.8497 72.2606 23.0654 71.7218 22.0443C71.1874 21.0189 70.9202 19.7893 70.9202 18.3555C70.9202 16.9173 71.1874 15.6877 71.7218 14.6667C72.2606 13.6413 72.9905 12.857 73.9116 12.3139C74.8371 11.7708 75.8842 11.4992 77.053 11.4992C78.2218 11.4992 79.2668 11.7708 80.1879 12.3139C81.1133 12.857 81.8433 13.6413 82.3777 14.6667C82.9165 15.6877 83.1859 16.9173 83.1859 18.3555ZM80.7549 18.3555C80.7549 17.3431 80.5963 16.4894 80.2791 15.7942C79.9663 15.0946 79.5318 14.5667 78.9756 14.2104C78.4195 13.8498 77.7786 13.6695 77.053 13.6695C76.3274 13.6695 75.6865 13.8498 75.1304 14.2104C74.5742 14.5667 74.1376 15.0946 73.8204 15.7942C73.5076 16.4894 73.3511 17.3431 73.3511 18.3555C73.3511 19.3679 73.5076 20.2238 73.8204 20.9233C74.1376 21.6185 74.5742 22.1464 75.1304 22.5071C75.6865 22.8634 76.3274 23.0415 77.053 23.0415C77.7786 23.0415 78.4195 22.8634 78.9756 22.5071C79.5318 22.1464 79.9663 21.6185 80.2791 20.9233C80.5963 20.2238 80.7549 19.3679 80.7549 18.3555Z" fill="#87835D"/>
</svg>
